<svg id="Ebene_1" data-name="Ebene 1" xmlns="http://www.w3.org/2000/svg" width="210.881" height="50" viewBox="0 0 210.881 50">
  <path id="Pfad_5" data-name="Pfad 5" d="M348.469,126.731h3.73c1.375,0,2.573-.445,2.573-2.088s-1.019-2.263-2.508-2.263h-3.795Zm0-6.724H352c1.228,0,2.131-.556,2.131-1.888,0-1.508-1.151-1.821-2.395-1.821h-3.264ZM345,113.59h7.458c3.018,0,5.06.976,5.06,3.93a3.479,3.479,0,0,1-2.149,3.307,3.869,3.869,0,0,1,2.908,4.016c0,3.221-2.729,4.605-5.594,4.605H345Z" transform="translate(-241.503 -79.817)"/>
  <path id="Pfad_6" data-name="Pfad 6" d="M410.062,126.032c3.129,0,4.3-2.662,4.3-5.3,0-2.763-1.176-5.437-4.3-5.437s-4.3,2.662-4.3,5.437c0,2.64,1.176,5.3,4.3,5.3m0-13.672c4.912,0,7.789,3.663,7.789,8.37,0,4.572-2.886,8.235-7.789,8.235s-7.792-3.663-7.792-8.235c0-4.707,2.886-8.37,7.792-8.37" transform="translate(-281.625 -78.964)"/>
  <path id="Pfad_7" data-name="Pfad 7" d="M469.42,113.59h3.463l6.613,10.632h.046V113.59H482.8v15.849h-3.485l-6.589-10.611h-.046v10.611H469.42Z" transform="translate(-328.599 -79.817)"/>
  <path id="Pfad_8" data-name="Pfad 8" d="M531.66,113.59h3.463l6.613,10.632h.043V113.59h3.264v15.849h-3.485l-6.592-10.611h-.043v10.611H531.66Z" transform="translate(-372.168 -79.817)"/>
  <path id="Pfad_9" data-name="Pfad 9" d="M634.026,85.134H632.66V84.29H636.4v.844H635.03v3.715h-1Z" transform="translate(-443.05 -59.025)"/>
  <path id="Pfad_10" data-name="Pfad 10" d="M649.09,87.087h1.182l-.574-1.658h0Zm.1-2.8h1.029l1.71,4.559H650.88l-.344-1.013h-1.7l-.359,1.013H647.46Z" transform="translate(-453.306 -59.025)"/>
  <path id="Pfad_11" data-name="Pfad 11" d="M666.741,88.008h.893c.583,0,1.139-.359,1.139-1.366,0-.921-.307-1.508-1.317-1.508h-.715Zm-1-3.718H667.7a2,2,0,0,1,2.069,2.257,2.024,2.024,0,0,1-2.069,2.3H665.74Z" transform="translate(-465.973 -59.025)"/>
  <path id="Pfad_12" data-name="Pfad 12" d="M683.876,85.134H682.51V84.29h3.733v.844h-1.366v3.715h-1Z" transform="translate(-477.595 -59.025)"/>
  <rect id="Rechteck_3" data-name="Rechteck 3" width="1.001" height="0.982" transform="translate(209.88 28.808)"/>
  <path id="Pfad_13" data-name="Pfad 13" d="M620.415,107.383a.986.986,0,0,0-1-.8c-.9,0-1.228.768-1.228,1.566s.338,1.535,1.228,1.535a1.028,1.028,0,0,0,1.035-1.022h.964a1.925,1.925,0,0,1-2,1.864,2.2,2.2,0,0,1-2.241-2.367,2.235,2.235,0,0,1,2.241-2.41,1.855,1.855,0,0,1,1.968,1.643Z" transform="translate(-432.316 -74.055)"/>
  <rect id="Rechteck_4" data-name="Rechteck 4" width="1.001" height="4.559" transform="translate(190.556 31.798)"/>
  <path id="Pfad_14" data-name="Pfad 14" d="M644.576,106.921H643.21v-.841h3.733v.841h-1.366v3.718h-1Z" transform="translate(-450.361 -74.282)"/>
  <path id="Pfad_15" data-name="Pfad 15" d="M659.629,108.865l-1.679-2.785h1.13l1.065,1.8,1.062-1.8h1.115l-1.692,2.809v1.75h-1Z" transform="translate(-460.575 -74.282)"/>
  <rect id="Rechteck_5" data-name="Rechteck 5" width="1.004" height="0.982" transform="translate(202.84 35.348)"/>
  <path id="Pfad_16" data-name="Pfad 16" d="M618.85,132.419h-1.13l-1.48-4.559h1.035l1.013,3.205h.012l1.029-3.205h1.035Z" transform="translate(-431.671 -89.705)"/>
  <rect id="Rechteck_6" data-name="Rechteck 6" width="1.001" height="4.559" transform="translate(189.846 38.155)"/>
  <path id="Pfad_17" data-name="Pfad 17" d="M642.06,127.86h1v3.718h2.223v.841H642.06Z" transform="translate(-449.564 -89.705)"/>
  <path id="Pfad_18" data-name="Pfad 18" d="M656.89,127.86h1v3.718h2.223v.841H656.89Z" transform="translate(-459.841 -89.705)"/>
  <path id="Pfad_19" data-name="Pfad 19" d="M671.72,127.86h3.408v.844h-2.407v.976h2.211v.78h-2.211v1.118h2.459v.841h-3.46Z" transform="translate(-470.117 -89.705)"/>
  <rect id="Rechteck_7" data-name="Rechteck 7" width="1.001" height="0.982" transform="translate(206.448 41.732)"/>
  <path id="Pfad_20" data-name="Pfad 20" d="M618.841,153.476h1.075c.4,0,.74-.129.74-.614s-.307-.651-.721-.651h-1.093Zm0-1.934h1.016c.35,0,.614-.16.614-.543,0-.433-.335-.525-.691-.525h-.94Zm-1-1.842h2.149c.869,0,1.455.279,1.455,1.13a1,1,0,0,1-.614.952,1.115,1.115,0,0,1,.838,1.154c0,.921-.786,1.323-1.612,1.323h-2.208Z" transform="translate(-432.78 -104.84)" fill="#e30613"/>
  <path id="Pfad_21" data-name="Pfad 21" d="M636.571,153.223c.9,0,1.228-.765,1.228-1.535s-.338-1.563-1.228-1.563-1.228.765-1.228,1.563.338,1.535,1.228,1.535m0-3.933a2.213,2.213,0,0,1,2.241,2.407,2.245,2.245,0,1,1-4.483,0,2.229,2.229,0,0,1,2.241-2.407" transform="translate(-444.207 -104.556)" fill="#e30613"/>
  <path id="Pfad_22" data-name="Pfad 22" d="M653.64,149.65h1l1.9,3.058h.012V149.65h.94v4.559h-1l-1.9-3.055h-.012v3.055h-.94Z" transform="translate(-457.589 -104.805)" fill="#e30613"/>
  <path id="Pfad_23" data-name="Pfad 23" d="M671.55,149.65h.995l1.9,3.058h.012V149.65h.94v4.559h-1l-1.894-3.055h-.012v3.055h-.94Z" transform="translate(-470 -104.805)" fill="#e30613"/>
  <rect id="Rechteck_8" data-name="Rechteck 8" width="1.004" height="0.982" transform="translate(206.988 48.419)" fill="#e30613"/>
  <path id="Pfad_24" data-name="Pfad 24" d="M636.876,3.47a10.246,10.246,0,1,0,10.246,10.246A10.246,10.246,0,0,0,636.876,3.47" transform="translate(-438.871 -2.408)" fill="#e63616"/>
  <path id="Pfad_25" data-name="Pfad 25" d="M633.046,22a10.277,10.277,0,0,1-2.456-3.024L639.4,4.24a.218.218,0,0,1,.408,0l8.652,14.166c.15.2,0,.368-.218.368H636.408c-.276,0-.344-.172-.224-.359l1.425-2.336a1.862,1.862,0,0,1,1.99-1.01c1.154.009,2.422,0,2.422,0l-2.4-4.056Z" transform="translate(-441.616 -2.843)" fill="#fff"/>
  <path id="Pfad_26" data-name="Pfad 26" d="M617.87,87.093c0,.614.473.844,1.01.844.35,0,.887-.1.887-.568s-.685-.574-1.354-.752-1.36-.442-1.36-1.3a1.529,1.529,0,0,1,1.7-1.379c.952,0,1.827.414,1.827,1.468h-.97c-.031-.547-.421-.688-.9-.688-.307,0-.691.132-.691.516s.218.4,1.36.691c.332.083,1.354.307,1.354,1.329,0,.835-.657,1.461-1.9,1.461-1.007,0-1.953-.5-1.94-1.624Z" transform="translate(-432.129 -58.782)"/>
  <path id="Pfad_27" data-name="Pfad 27" d="M40.1,35.531c0-6.7,4.139-10.8,10.906-10.8s10.906,4.1,10.906,10.8S57.773,46.3,51.006,46.3,40.1,42.228,40.1,35.531m13.927,0c0-3.377-1.078-5.149-3.07-5.149s-3.024,1.762-3.024,5.149,1.044,5.112,3.024,5.112,3.07-1.729,3.07-5.112" transform="translate(-27.788 -17.14)"/>
  <path id="Pfad_28" data-name="Pfad 28" d="M126.159,29.552H118.79V1.4h7.676v9.721a6.32,6.32,0,0,1,5.4-2.456c5.075,0,8.459,4.031,8.459,10.725s-3.4,10.749-8.477,10.749a6.593,6.593,0,0,1-5.689-2.736Zm3.276-15.192c-2.149,0-3.169,1.655-3.169,5.038s1.01,5,3.169,5,3.132-1.618,3.132-5-.97-5.038-3.132-5.038" transform="translate(-83.189 -0.973)"/>
  <path id="Pfad_29" data-name="Pfad 29" d="M6.021,28.39a5.834,5.834,0,0,1-3.684-1.333V46.425c0,1.007-.5,1.477-1.535,1.477a6.338,6.338,0,0,1-.8-.074v5.834c1.873.178,3.132.215,3.816.215,4.391,0,6.19-1.842,6.19-6.371V26.79a5.834,5.834,0,0,1-3.985,1.6Z" transform="translate(0 -18.944)"/>
  <path id="Pfad_30" data-name="Pfad 30" d="M224.52,12.126c-6.567,0-11.179,4.464-11.179,10.921,0,6.825,4.387,11.179,11.36,11.179,5.717,0,9.825-2.8,10.807-7.062h-7.7a2.928,2.928,0,0,1-2.877,1.587,3.918,3.918,0,0,1-4.022-3.654h14.943v-.464c0-7.934-4.357-12.508-11.326-12.508m-3.433,8.6c.479-2.029,1.772-3.135,3.5-3.135a3.458,3.458,0,0,1,3.684,3.135Zm-19.849-2.8a2.8,2.8,0,0,1,3.027,2.763h7.746c-.663-5.527-4.575-8.56-11.068-8.56a11.785,11.785,0,0,0-8.523,3.248,9.392,9.392,0,0,0-.872,1,15.947,15.947,0,0,1,1.354,6.755,15.9,15.9,0,0,1-1.391,6.838c1.937,2.72,5.272,4.255,9.727,4.255,6.531,0,10.368-3.319,10.774-9.3h-7.6c-.147,2.324-1.293,3.506-3.285,3.506-2.251,0-3.54-1.842-3.54-5.278s1.253-5.238,3.651-5.238M271.863,6.4h-7.9v6.325h-2.582v5.127h2.582V27.7c0,4.538,1.842,6.567,6.088,6.567a32.977,32.977,0,0,0,5.017-.614V27.99a10.131,10.131,0,0,1-1.4.114c-1.293,0-1.808-.408-1.808-1.514V17.846h3.208V12.725h-3.208Zm37.04,9.825v-3.5h-7.341V33.637h7.931V23.971c0-3.027,1.7-4.722,4.648-4.722a8.578,8.578,0,0,1,1.624.147V12.2c-3.764.071-6.048,1.4-6.862,4.019M252.459,12.2a8.077,8.077,0,0,0-6.9,3.761V12.682H238.1V33.637h7.86V21.662a2.822,2.822,0,0,1,2.951-2.917c1.7,0,2.733,1.035,2.733,2.917V33.637H259.5V20.354c0-5.2-2.763-8.152-7.046-8.152m35.456-.077c-6.567,0-11.179,4.464-11.179,10.921,0,6.825,4.391,11.179,11.36,11.179,5.717,0,9.825-2.8,10.81-7.062H291.2a2.936,2.936,0,0,1-2.88,1.587,3.918,3.918,0,0,1-4.022-3.654h14.943v-.464c0-7.934-4.357-12.508-11.326-12.508m-3.433,8.6c.482-2.029,1.772-3.135,3.506-3.135a3.46,3.46,0,0,1,3.684,3.135Z" transform="translate(-135.704 -4.438)"/>
  <path id="Pfad_31" data-name="Pfad 31" d="M10.73,7.876a3.933,3.933,0,1,1,3.8-2.916,3.933,3.933,0,0,1-3.8,2.916" transform="translate(-4.709 -0.01)"/>
</svg>
